<svg xmlns="http://www.w3.org/2000/svg" width="512" height="512" viewBox="0 0 512 512">
  <rect width="512" height="512" fill="#0B0E14"/>
  <g stroke="#5FD3E0" stroke-width="1" opacity="0.05">
    <path d="M0 96h512M0 160h512M0 224h512M0 288h512M0 352h512M0 416h512"/>
    <path d="M96 0v512M160 0v512M224 0v512M288 0v512M352 0v512M416 0v512"/>
  </g>
  <g fill="none" stroke="#E08A2B">
    <circle cx="256" cy="256" r="112" stroke-width="7" opacity="0.85"/>
    <circle cx="256" cy="256" r="158" stroke-width="5" opacity="0.45"/>
    <circle cx="256" cy="256" r="200" stroke-width="3" opacity="0.20"/>
  </g>
  <g fill="#E08A2B" opacity="0.9">
    <rect x="378" y="150" width="13" height="13" rx="2"/>
    <rect x="126" y="336" width="11" height="11" rx="2"/>
    <rect x="352" y="368" width="9"  height="9"  rx="2"/>
    <rect x="142" y="146" width="9"  height="9"  rx="2"/>
  </g>
  <rect x="186" y="186" width="140" height="140" rx="18" fill="#DA3524"/>
  <rect x="186" y="186" width="140" height="140" rx="18" fill="none"
        stroke="#FF8A6B" stroke-width="4" opacity="0.55"/>
  <rect x="186" y="186" width="140" height="34" rx="18" fill="#FFFFFF" opacity="0.14"/>
</svg>
